<?xml version="1.0" encoding="utf-8"?>
<svg viewBox="296.5 437.5 106 62" xmlns="http://www.w3.org/2000/svg">
  <defs>
    <style type="text/css">
	.st0{fill:#FFFFFF;}
	.st1{fill:#010101;}
	.st2{fill:#B11E3D;}
	.st3{fill:#FFC316;}
	.st4{fill:#DCE0E5;}
	.st5{fill:#171514;}
	.st6{fill:#B11E44;}
	.st7{fill:#D1B333;}
	.st8{fill:#2C2562;}
	.st9{fill:#C6332C;}
	.st10{fill:#DA2128;}
	.st11{fill:#005496;}
	.st12{fill-rule:evenodd;clip-rule:evenodd;fill:#1998D5;}
	.st13{fill-rule:evenodd;clip-rule:evenodd;fill:#FFFFFF;}
	.st14{fill-rule:evenodd;clip-rule:evenodd;}
	.st15{fill-rule:evenodd;clip-rule:evenodd;fill:#C6CACE;}
	.st16{fill:#EF4723;}
	.st17{fill:#F37029;}
	.st18{fill:none;}
	.st19{clip-path:url(#SVGID_2_);fill-rule:evenodd;clip-rule:evenodd;fill:#EE4923;}
	.st20{clip-path:url(#SVGID_2_);fill-rule:evenodd;clip-rule:evenodd;fill:#2C1B11;}
	.st21{fill-rule:evenodd;clip-rule:evenodd;fill:#2C1B11;}
	.st22{fill-rule:evenodd;clip-rule:evenodd;fill:#F7ECE6;}
	.st23{fill-rule:evenodd;clip-rule:evenodd;fill:#EE4923;}
	.st24{clip-path:url(#SVGID_4_);fill-rule:evenodd;clip-rule:evenodd;fill:#2C1B11;}
	.st25{fill-rule:evenodd;clip-rule:evenodd;fill:#451613;}
	.st26{fill-rule:evenodd;clip-rule:evenodd;fill:#631511;}
	.st27{fill-rule:evenodd;clip-rule:evenodd;fill:#322417;}
	.st28{clip-path:url(#SVGID_6_);fill-rule:evenodd;clip-rule:evenodd;fill:#322417;}
	.st29{clip-path:url(#SVGID_6_);fill-rule:evenodd;clip-rule:evenodd;fill:#2C1B11;}
	.st30{fill:#1B294B;}
	.st31{fill-rule:evenodd;clip-rule:evenodd;fill:#1E196A;}
	.st32{fill-rule:evenodd;clip-rule:evenodd;fill:#F58220;}
	.st33{fill-rule:evenodd;clip-rule:evenodd;fill:#0086C5;}
	.st34{fill:#FFD040;}
	.st35{fill:#124734;}
	.st36{fill:#FEFEFE;}
	.st37{fill-rule:evenodd;clip-rule:evenodd;fill:#00143F;}
	.st38{fill-rule:evenodd;clip-rule:evenodd;fill:#C9243F;}
	.st39{fill:#003A70;}
	.st40{clip-path:url(#SVGID_8_);}
	.st41{clip-path:url(#SVGID_10_);}
	.st42{clip-path:url(#SVGID_10_);fill:#175465;}
	.st43{clip-path:url(#SVGID_10_);fill:#C9942B;}
	.st44{clip-path:url(#SVGID_10_);fill:#8B6728;}
	.st45{clip-path:url(#SVGID_10_);fill:none;stroke:#000000;stroke-width:5.325432e-02;}
	.st46{clip-path:url(#SVGID_10_);fill:#FFFFFF;}
	.st47{fill:#030303;}
	.st48{fill:#E21D38;}
	.st49{fill-rule:evenodd;clip-rule:evenodd;fill:#FFFEFE;}
	.st50{fill-rule:evenodd;clip-rule:evenodd;fill:#0078BE;}
	.st51{fill-rule:evenodd;clip-rule:evenodd;fill:#FFC20E;}
	.st52{fill:#0A2343;}
	.st53{fill:#015679;}
	.st54{fill:#008D97;}
	.st55{fill:#F58120;}
	.st56{fill:#FFF200;}
	.st57{fill:none;stroke:#ED1C24;stroke-width:3.869697e-02;}
	.st58{fill:#402F83;}
	.st59{fill:#F6D4B5;}
	.st60{clip-path:url(#SVGID_12_);fill:#0063A5;}
	.st61{clip-path:url(#SVGID_12_);fill:#FFFFFF;}
	.st62{fill:#ED1C24;}
	.st63{fill:#0063A5;}
	.st64{fill:#DCDDDE;}
	.st65{fill:#C6A876;}
	.st66{fill:#B21F36;}
	.st67{fill:#25326A;}
	.st68{fill:#A6ACAF;}
	.st69{clip-path:url(#SVGID_14_);}
	.st70{clip-path:url(#SVGID_16_);fill:#044C52;}
	.st71{clip-path:url(#SVGID_16_);}
	.st72{clip-path:url(#SVGID_16_);fill:none;stroke:#000000;stroke-width:0.2671;}
	.st73{clip-path:url(#SVGID_16_);fill:#FFFFFF;}
	.st74{clip-path:url(#SVGID_16_);fill:#BCC3C9;}
	.st75{clip-path:url(#SVGID_18_);}
	.st76{fill:#B1B3B6;}
	.st77{fill:#034EA2;}
	.st78{fill:#FDB913;}
	.st79{fill:#E03A3E;}
	.st80{fill:#0B0B0B;}
	.st81{fill:#C6A463;}
	.st82{fill:#C8203D;}
	.st83{clip-path:url(#SVGID_22_);fill:#FFFFFF;}
	.st84{clip-path:url(#SVGID_22_);fill:#0A2343;}
	.st85{fill:#6ABD45;}
	.st86{fill:#A5ACAF;}
	.st87{fill:#231F20;}
	.st88{fill:#C1282D;}
	.st89{fill:#9D9FA2;}
	.st90{fill:#F26724;}
	.st91{clip-path:url(#SVGID_24_);fill:#FFFFFF;}
	.st92{fill:#1F3263;}
	.st93{fill:#668FCA;}
	.st94{fill:#C5C8D1;}
	.st95{fill:#C02026;}
	.st96{fill:#FCB515;}
</style>
  </defs>
  <g>
    <path class="st31" d="M296.5,454.1c2,2.5,4,4.1,6.3,4.1c3.1,0,3.2-1.9,6.6-2.1c-4.4-4.1-3.6-14.3,1.2-18.6 c-0.5,10.7,2.8,13.8,8.9,13.2c-3.6-2.1-4.7-6.4-4.2-11.8c2.3,3.1,5,4.8,7,4.7c3.5-0.1,8.6-5.8,17.1-5.7c9,0.1,16.1,5.1,21.6,13.8 c5.6-0.1,10.6,1.2,14.4,5.9l11.8,5.2l-1.4,0.9c4.2,2.5,8.4,5.4,12.6,8.5l3.1,1.4c-1.6,3.3-1.1,5.2,1,6.3l-2.7,7 c-3.1-4.2-6.2-7.1-9.7-7.1c-3.6,0-2,3.9,6.2,4l-4.1,3.9l-7.8-0.5c0.3-0.7,0.1-1.4-0.1-2.1c-0.6-1.6-2.8-3.3-6.8-5.1 c-5.3,2.8-10.4,2.2-15.2-1.1c-10.5,4.9-11.6,8.2-12.4,20.6l-1.1,0c-3.6-11.4-5.9-19.8-22.1-23.1 C310.9,473.3,298.5,470.6,296.5,454.1L296.5,454.1z"/>
    <path class="st13" d="M362.3,453.5c0.9,0.5,2.5,1.2,3,2.7c-4-1.2-8.9-2.1-13.9-2.2c-12.7-0.3-28.2,3.4-44.4,14.5 c4.9,2.5,9.4,3.6,14.1,4.7c9.6-6.3,18.1-8.4,29-8.8c-0.6-1.2-1.7-2.4-2.3-3.6c4.7,0.5,10.4,3.2,14.7,5.3c0,0.1,0.3,0.2,0.3,0.2 c0.3,5.2,2.3,8.9,7.9,9.9c2.1-0.2,4.7-0.6,6.6-2.1c1.3,0.5,5.7,2.9,6.4,4c-2.1-0.8-3.5-1.9-6-2.2c-1.6,1-4.7,2-7.7,2 c-7.2-1-8.7-4.7-11-10.4c-2-0.5-4.8-0.8-7.7-0.7c-7,0.2-15.2,3-20.6,8.7c3.6,1.5,6.9,2.7,9.9,4.9c0.9-1.1,6.2-6,14.1-5.9 c-5.8,1.9-8,3.7-11,8.7c1.3,0.5,3.2,5,4.8,8.6c2.5-10.2,8.9-13,14-15c2.3,1.3,4.7,3.2,7.7,3c2.8-0.2,5.1-0.8,7.1-1.8 c3.7,1.8,7.7,3.5,9.2,7.7c1.9,0.1,3.7,0.5,4.9,0.6c0,0,1.4-1.4,1.4-1.6c-4-0.4-6.4-2-6.2-4.2c0.1-1.5,1.5-2.5,3.4-2.3 c2.2,0.2,5.6,2,8.9,5.2c0.2,0,0.3,0,0.5,0c0.4-0.9,0.9-2,0.8-3.1c-2.9-2.2-1.1-5.1-1.2-5.9c-5.8-3.2-11.1-7.9-16.9-10.6 c0.4-0.4,0.9-0.7,1.1-1c-2.6-1.4-4.9-2.2-9.3-3.8C372.5,455.6,366,453.3,362.3,453.5L362.3,453.5z M372.2,458.7 c-1.5-1.9-2.4-2.8-4.6-3.5c0.6,0.6,1.1,0.9,1.3,1.5c-1.1-0.2-1.5-0.1-2.2-0.1C369.1,457.5,370.1,457.7,372.2,458.7L372.2,458.7z M391,472c-3.1-3.2-16.1-10.5-17.7-10.5c2.2,2,5.2,4.4,5.7,5.1c0.6-0.2,1.1-0.6,1.3-0.8C382.1,466.9,387.3,470.3,391,472L391,472z M394.3,474.5c0.1,2,2.1,3,3.3,3.8c-0.5-0.5-1.7-2.2-1.6-2.7c0.1-0.4,0.6-0.6,1-1.1C396,474.4,395.1,474.2,394.3,474.5L394.3,474.5 z"/>
    <path class="st32" d="M316.2,442.5c1.3,3.7,2.3,7.1,6.5,7.3c3,0.1,10-3.2,15.3-3.4c2.1-0.1,5.6,1.5,7.9,5.7c5-0.5,9.8,0.6,13.5,0.7 c-3.9-7.3-12.6-13-19.5-12.9c-10.7,0.2-12.7,5.7-18,5.2C319.7,444.9,317.8,443.9,316.2,442.5L316.2,442.5z"/>
    <path class="st32" d="M308.8,442.4c-0.7,2.3-1,4.7-0.8,6.6c0.7,5.9,5.7,9.7,11,9.8c7.3-2.8,14.3-5.5,22.1-6.2 c-0.5-1.9-4-3.1-6.7-3.2c-4.4-0.1-12.1,3.4-17.2,3.1C312.2,452.1,309.7,450.4,308.8,442.4L308.8,442.4z"/>
    <path class="st32" d="M299.1,458.8c1.5,3.9,3.7,5.3,7.3,5.3c4.7,0,7.4-1.8,9.6-3.4c-1.6-0.8-4.3-3-6.6-2.8 C305.3,458.3,305,461.2,299.1,458.8L299.1,458.8z"/>
    <path class="st32" d="M380.1,464.7c-0.2-0.1-0.4-0.2-0.6-0.3c0,0,0,0.1,0,0.1c-0.1,0.4-0.6,0.8-0.8,0.7c-0.3-0.1-0.3-1,0.1-1.2 c-0.2-0.1-0.4-0.2-0.6-0.3c-0.6,0.6-0.4,1.7,0.3,2C379.2,466,380,465.5,380.1,464.7L380.1,464.7z"/>
  </g>
</svg>