<?xml version="1.0" encoding="utf-8"?>
<svg viewBox="48.368 217.7625 78.8241 107.8094" xmlns="http://www.w3.org/2000/svg">
  <defs>
    <style type="text/css">
	.st0{fill:#FFFFFF;}
	.st1{fill:#010101;}
	.st2{fill:#B11E3D;}
	.st3{fill:#FFC316;}
	.st4{fill:#DCE0E5;}
	.st5{fill:#171514;}
	.st6{fill:#B11E44;}
	.st7{fill:#D1B333;}
	.st8{fill:#2C2562;}
	.st9{fill:#C6332C;}
	.st10{fill:#DA2128;}
	.st11{fill:#005496;}
	.st12{fill-rule:evenodd;clip-rule:evenodd;fill:#1998D5;}
	.st13{fill-rule:evenodd;clip-rule:evenodd;fill:#FFFFFF;}
	.st14{fill-rule:evenodd;clip-rule:evenodd;}
	.st15{fill-rule:evenodd;clip-rule:evenodd;fill:#C6CACE;}
	.st16{fill:#EF4723;}
	.st17{fill:#F37029;}
	.st18{fill:none;}
	.st19{clip-path:url(#SVGID_2_);fill-rule:evenodd;clip-rule:evenodd;fill:#EE4923;}
	.st20{clip-path:url(#SVGID_2_);fill-rule:evenodd;clip-rule:evenodd;fill:#2C1B11;}
	.st21{fill-rule:evenodd;clip-rule:evenodd;fill:#2C1B11;}
	.st22{fill-rule:evenodd;clip-rule:evenodd;fill:#F7ECE6;}
	.st23{fill-rule:evenodd;clip-rule:evenodd;fill:#EE4923;}
	.st24{clip-path:url(#SVGID_4_);fill-rule:evenodd;clip-rule:evenodd;fill:#2C1B11;}
	.st25{fill-rule:evenodd;clip-rule:evenodd;fill:#451613;}
	.st26{fill-rule:evenodd;clip-rule:evenodd;fill:#631511;}
	.st27{fill-rule:evenodd;clip-rule:evenodd;fill:#322417;}
	.st28{clip-path:url(#SVGID_6_);fill-rule:evenodd;clip-rule:evenodd;fill:#322417;}
	.st29{clip-path:url(#SVGID_6_);fill-rule:evenodd;clip-rule:evenodd;fill:#2C1B11;}
	.st30{fill:#1B294B;}
	.st31{fill-rule:evenodd;clip-rule:evenodd;fill:#1E196A;}
	.st32{fill-rule:evenodd;clip-rule:evenodd;fill:#F58220;}
	.st33{fill-rule:evenodd;clip-rule:evenodd;fill:#0086C5;}
	.st34{fill:#FFD040;}
	.st35{fill:#124734;}
	.st36{fill:#FEFEFE;}
	.st37{fill-rule:evenodd;clip-rule:evenodd;fill:#00143F;}
	.st38{fill-rule:evenodd;clip-rule:evenodd;fill:#C9243F;}
	.st39{fill:#003A70;}
	.st40{clip-path:url(#SVGID_8_);}
	.st41{clip-path:url(#SVGID_10_);}
	.st42{clip-path:url(#SVGID_10_);fill:#175465;}
	.st43{clip-path:url(#SVGID_10_);fill:#C9942B;}
	.st44{clip-path:url(#SVGID_10_);fill:#8B6728;}
	.st45{clip-path:url(#SVGID_10_);fill:none;stroke:#000000;stroke-width:5.325432e-02;}
	.st46{clip-path:url(#SVGID_10_);fill:#FFFFFF;}
	.st47{fill:#030303;}
	.st48{fill:#E21D38;}
	.st49{fill-rule:evenodd;clip-rule:evenodd;fill:#FFFEFE;}
	.st50{fill-rule:evenodd;clip-rule:evenodd;fill:#0078BE;}
	.st51{fill-rule:evenodd;clip-rule:evenodd;fill:#FFC20E;}
	.st52{fill:#0A2343;}
	.st53{fill:#015679;}
	.st54{fill:#008D97;}
	.st55{fill:#F58120;}
	.st56{fill:#FFF200;}
	.st57{fill:none;stroke:#ED1C24;stroke-width:3.869697e-02;}
	.st58{fill:#402F83;}
	.st59{fill:#F6D4B5;}
	.st60{clip-path:url(#SVGID_12_);fill:#0063A5;}
	.st61{clip-path:url(#SVGID_12_);fill:#FFFFFF;}
	.st62{fill:#ED1C24;}
	.st63{fill:#0063A5;}
	.st64{fill:#DCDDDE;}
	.st65{fill:#C6A876;}
	.st66{fill:#B21F36;}
	.st67{fill:#25326A;}
	.st68{fill:#A6ACAF;}
	.st69{clip-path:url(#SVGID_14_);}
	.st70{clip-path:url(#SVGID_16_);fill:#044C52;}
	.st71{clip-path:url(#SVGID_16_);}
	.st72{clip-path:url(#SVGID_16_);fill:none;stroke:#000000;stroke-width:0.2671;}
	.st73{clip-path:url(#SVGID_16_);fill:#FFFFFF;}
	.st74{clip-path:url(#SVGID_16_);fill:#BCC3C9;}
	.st75{clip-path:url(#SVGID_18_);}
	.st76{fill:#B1B3B6;}
	.st77{fill:#034EA2;}
	.st78{fill:#FDB913;}
	.st79{fill:#E03A3E;}
	.st80{fill:#0B0B0B;}
	.st81{fill:#C6A463;}
	.st82{fill:#C8203D;}
	.st83{clip-path:url(#SVGID_22_);fill:#FFFFFF;}
	.st84{clip-path:url(#SVGID_22_);fill:#0A2343;}
	.st85{fill:#6ABD45;}
	.st86{fill:#A5ACAF;}
	.st87{fill:#231F20;}
	.st88{fill:#C1282D;}
	.st89{fill:#9D9FA2;}
	.st90{fill:#F26724;}
	.st91{clip-path:url(#SVGID_24_);fill:#FFFFFF;}
	.st92{fill:#1F3263;}
	.st93{fill:#668FCA;}
	.st94{fill:#C5C8D1;}
	.st95{fill:#C02026;}
	.st96{fill:#FCB515;}
</style>
  </defs>
  <g>
    <path d="M83.7,247.1l-1,1.3c0,0-10.1,1.9-15.1-6c0,0-2.4-3.3-2.2-9.8c0,0,0.3-6.9-0.7-10.1c0,0-0.7-2.7-2.3-4.4c0,0-0.6-0.6-1-0.2 c0,0-0.2,0.4,0.2,1c0,0,1.4,2.2,1.3,6c0,0-0.1,3.3-0.7,5.4c0,0-1,3.4-1,4.4c0,0-0.6,4.6,0.5,8.7c0,0,1.9,8.1,9,13.4 c0,0,4.1,3.6,7.7,4.2c0,0-1,6.1-0.3,8.5c0,0-12.9,4.1-23.7,17.4c0,0-5.4,6-6,6.6c0,0-0.2,0.6,0.4,0.5c0,0,14.9-11.3,28.6-6 c0,0,11.3,3.6,14.4,17.9c0,0,1.8,4.5-0.5,17c0,0-0.6,2.3,0.3,2.6c0,0,2.5,1.2,5.2-6.2c0,0,0.6-0.1,0.8-2.5c0,0,2.2-1.7,1.6-6 c0,0,1.2-2.1,0.5-5.7c0,0,1.3-4,0.2-7.4c0,0,4.7-3.7,7.8-4.1c0,0,0.7,7.1-1.4,10.7c0,0-1.7,3-3,3.8c0,0,2.7,1.3,7.1-5.3 c0,0,3.4-6.5,4.4-11c0,0,10.7-2.1,11.1-2.2c0,0,1.7-0.2,1.2-1.7c0,0-0.5-3.8-2.8-3.7l-0.9,0.1c0,0,1.7-4.3,0.7-3.9 c0,0,0.5-0.6,1.8-0.6c0,0,0.8-2.9-2.1-5l0.5-0.2c0,0,0.7-0.8,0.6-2.1c0,0-1.9-0.2-2.1-1.4c0,0-0.3-2.9-0.8-3.8c0,0,3.4-0.5,3.4-5.8 c0,0-1.4,1.7-3.4,1.9c0,0-6.1-23.9-32.6-25.2c0,0-0.8,2.9-1,3.2c0,0-6-1.6-7.8-10.9c0,0-1-6.9-6.3-10.2c0,0-0.8-0.6-1-0.1 c0,0,0.1,0.3,0.4,0.5c0,0,3.6,3.2,3.8,7.8c0,0,0.2,3.9,0.1,6.2C77.5,234.6,77,243.5,83.7,247.1"/>
    <path class="st0" d="M78.6,232.8c0,0,0.1,5.7,1.4,8.8c0,0,1.4,3.5,4.3,2.7c0,0,1.6-0.3,1.8-2.2c0,0,0-0.6-0.6-1.2l-0.6-0.5 c0,0-3.5-2.6-4.5-7.8c0,0,0,1.9,0.5,3.7c0,0-0.7-0.6-1.4-4.6c0,0-0.4,2.2,0.5,5.4C79.8,237.2,79.1,236.6,78.6,232.8 M93.1,250.3 c0,0-5.1-0.9-8.9-0.6c0,0-8.4,0.7-13.3-2.5c0,0-6.1-3.5-6.3-14.4c0,0-1.6,7.9,1.9,12.5c0,0-2.6-0.7-2.9-7.3l0.1-6.2 c0,0-1,6.2-0.5,9.7c0,0,0.5,3.3,2.6,6.1c0,0-3.3-1.9-3.5-10.7c0,0-2.3,10.4,9.6,19.4c0,0,1.4,0.3,2.8,0.2c0,0,1,0,0.5,0.3l-0.8,0.3 c0,0-0.7,0.3-0.2,0.4c0,0,0.9,0,1.7-0.2c0,0,1.1-0.4,0.8,0.1c0,0-0.3,0.3-0.6,0.4c0,0-0.7,0.5,0.1,0.3c0,0,0.8-0.3,1.6-0.5 c0,0,0.5-0.1,0.7,0c0,0,0.2,0.4-0.3,0.5c0,0-1,0.3-0.4,0.5c0,0,0.4,0.1,2-0.4c0,0,1.2-0.4,1.4-0.2c0,0,0.4,0.4-0.8,0.7 c0,0-0.9,0.3-1.1,0.5c0,0-0.3,0.4,0.1,0.4c0,0,0.4,0.2,2-0.6c0,0,0.8-0.4,1.3-0.4c0,0,0.4-0.1,0.4,0.1c0,0,0.1,0.5-0.9,0.6 c0,0-1.5,0.3-1.5,0.7c0,0,0.2,0.4,1.4,0c0,0,1.5-0.5,2.1-0.9c0,0,0.5-0.4,0.7-0.2c0,0,0.2,0.5-0.7,0.8c0,0-1.7,0.5-1.6,1 c0,0,0.1,0.9,3.3-0.8c0,0,0.7-0.6,1.1-0.5c0,0,0.4,0.2-0.1,0.6c0,0-0.7,0.5-1.3,0.8c0,0-0.7,0.3-0.6,0.5c0,0,0.2,0.5,1.9-0.4 c0,0,1.2-0.6,1.5-0.7c0,0,0.6-0.2,0.6-0.1c0,0,0.4,0.3-0.7,0.9c0,0-1.4,0.6-1.3,1c0,0,0,0.3,0.9-0.1c0,0,1.4-0.6,2.1-1 c0,0,0.9-0.4,1-0.1c0,0,0.2,0.5-0.5,0.7c0,0-1.4,0.5-1.3,1c0,0,0.1,0.4,1.3-0.3c0,0,1.2-0.7,1.7-0.7c0,0,0.9,0,0.3,0.4 c0,0-0.8,0.6-1.5,0.9c0,0-0.4,0-0.3,0.4c0,0,0.1,0.3,0.9-0.1c0,0,1.2-0.6,1.8-0.9c0,0,0.6-0.2,0.6,0c0,0,0.3,0.2-0.6,0.7 c0,0-1.3,0.7-1.1,1.1c0,0,0.4,0.4,1.2-0.3c0,0,0.7-0.6,1-0.4c0,0,0.3,0.3-0.2,0.7c0,0-0.9,0.7-0.6,0.9c0,0,0.1,0.2,0.8-0.3 c0,0,1-0.7,1.2-0.5c0,0,0.3,0.1-0.1,0.5c0,0-0.7,0.6-0.6,0.8c0,0,0.1,0.4,0.7-0.1c0,0,0,0,0,0c0.6-0.5,0.7-0.6,0.9-0.6 c0,0,0.7,0,0.3,0.5c0,0-0.4,0.4-0.2,0.6c0,0,0.3,0.1,0.7-0.3c0,0,0.5-0.3,0.8-0.1c0,0,0.2,0.2,0,0.5c0,0-0.1,0.3,0.2,0.1 c0,0,3.7-1.5,3.8-7.5C102.3,258.3,102.5,252,93.1,250.3"/>
    <path class="st56" d="M90.1,239.1c0,0-1.7,5.6-5.9,9.3c0,0,10.2-0.1,14.5,2.7c0,0,4.2,2.5,4.7,6.8c0,0,9.7-0.6,14.8,0.6 C118.2,258.5,113.8,242.2,90.1,239.1 M79.6,263.8l3.1-1.4l-2.7-0.7L79.6,263.8z"/>
    <path class="st57" d="M90.1,239.1c0,0-1.7,5.6-5.9,9.3c0,0,10.2-0.1,14.5,2.7c0,0,4.2,2.5,4.7,6.8c0,0,9.7-0.6,14.8,0.6 C118.2,258.5,113.8,242.2,90.1,239.1z M79.6,263.8l3.1-1.4l-2.7-0.7L79.6,263.8z"/>
    <path class="st58" d="M118.9,259.3c0,0,1.5,3.7,1.5,4.2c0,0-9.2-2.2-16.7,0.1c0,0-0.8,5.5-6.2,6.4c0,0-5,1.7-9.2-3.6 c0,0-4.3,0.1-8.5,2.4c0,0-1.3-1.6-0.3-3.8c0,0,3-1.3,4.4-1.8c0,0,2.4-1.3,5.9,1.5c0,0,5.6,5,10.6,0.9c0,0,2.9-2.6,3-6.5 C103.4,259.1,111.5,258.1,118.9,259.3"/>
    <path class="st59" d="M118.9,271.8c1.5-0.6,2.2,0.3,2.2,0.3c0.2,0.4-0.3,0.5-0.3,0.5c-0.3,0-0.9,0.1-0.9,0.1 c-0.9,0.1-0.6,1.1-0.6,1.1c0.2,0.5,1.1,0.2,1.1,0.2c0.5-0.2,3.2-0.5,3.2-0.5c0.2-0.2,0.2-1,0.2-1c-1.1-0.1-1.7-1.3-1.7-1.3 c-0.3-0.7-0.5-2.8-0.5-2.8c-0.1-1.6-1.4-1.5-1.4-1.5c-1.2,0-1.3,1.4-1.3,1.4l-0.2,0h-2.8c0,0.3,0.3,0.3,0.3,0.3 c0.7,0.2,0.8,0.6,0.8,0.6v1.6c0,2-1.5,2.6-1.5,2.6c-0.9,0.4-1.8,1.6-1.8,1.6c-0.8,1-0.7,2.9-0.7,2.9c1-1.4,5.5-3.5,5.5-3.5 C117.5,272.6,118.9,271.8,118.9,271.8 M116.1,271.7c0,0,0.4-1.6,0-2.3c0,0-1.8-0.4-2.5-0.9c0,0-0.6-0.5,0.3-0.7 c0,0,1.8-0.4,3.4-0.4c0,0,0.9,0,0.6-0.5c0,0-1.6-1.3-4.7-0.2c0,0-1.6,0.6-1.9,1c0,0-0.4,0.3-0.6,0.1c0,0-0.2,0-0.1-0.9 c0,0,0.3-1.6,0.3-2.3c0,0,0-0.4-0.3-0.4c0,0-0.8,0-1,0.5c0,0-2.1,5.9-4.1,7.2c0,0-0.2,0.3,0.2,0.3c0,0,2.5,0.1,3,4.7 c0,0,0.5,3.9,0.3,5.3c0,0-0.1,0.5-0.2,0.5c0,0-0.3,0-0.3-0.5c0,0-0.2-3.2-0.5-4.9c0,0-0.4-3.4-3.3-4.3c0,0-1.7,1.4-2.1,1.7 c0,0-1.2,0.9-1.5,3.2c0,0-0.2,1.6-0.2,1.8c0,0-0.1,0.6,0.1,0.6c0,0,0.4,0,0.8-0.3c0,0,0.4-0.3,0.6,0c0,0,0.2,0.1,0,1 c0,0-0.2,0.7,0,2.7c0,0,0.1,4.3,5.5,3.9c0,0,1.3-5.3,4.2-8.6C112.1,279,110.9,274.3,116.1,271.7 M103.3,287.2 c-1.7-1.3-1.7-4.9-1.7-4.9c0-0.8-0.6-0.9-0.6-0.9c-0.5,0-0.7,0.7-0.7,0.7l-1.2,6.2c2,3.6,0.6,8.4,0.6,8.4c2.3-2.3,7.9-4.9,7.9-4.9 c0-0.4,0.2-3.5,0.2-3.5C104.2,288.4,103.3,287.2,103.3,287.2 M116,288.8c0,0-0.6,1.4,0.5,1.4c0,0,4.6-0.4,6.7-1.5 C123.2,288.7,118.5,288.5,116,288.8 M125.8,286.3c-0.5-1.5-1.3-1.6-1.3-1.6l-1.4,0c-1,0-0.6-0.8-0.6-0.8c0.1-0.5,0.8-2,0.8-2 c0.5-1.1,0-1.2,0-1.2c-0.1-0.1-0.7,0.2-0.7,0.2c-3.8,2-6.1,7.1-6.1,7.1c2.5-0.2,8.9,0.4,8.9,0.4 C126.5,288.2,125.8,286.3,125.8,286.3"/>
    <path class="st56" d="M115,265.7c0,0,2.8,0.3,3.9,0.5c0,0,2.7,0.6,4.1-0.7c0,0,1.2-1,1.3-2.4c0,0-1.3,1.7-5,1.2 c0,0-4.6-0.7-5.5-0.8c0,0-1.6,0.3-1.8,2.8C111.9,266.3,113.3,265.6,115,265.7 M93.3,295.2c-0.9-0.9-4.4-2.9-4.4-2.9 c-1.1-0.6-1.9,0-1.9,0c-0.4,0.4,0,1.5,0,1.5c0.6,1.5,2.6,3,2.6,3c1.2,0.9,3.2,1,3.2,1C92.7,297.2,93.3,295.2,93.3,295.2 M89.7,291.5l0.3-3.6c-3.1,0.3-6.5-2.8-6.5-2.8C82.7,290.1,89.7,291.5,89.7,291.5 M95.7,301.3c-2.9-3.8-4.7-2.9-4.7-2.9 c-0.7,0.2-0.2,1.8-0.2,1.8c0.8,2.3,4,3.2,4,3.2C94.8,302.8,95.7,301.3,95.7,301.3 M96.2,300.4c0,0,3.2-4.2,3-8.1c0,0-0.2-2.2-0.4-3 c0,0-0.2-0.7-0.5-0.3c0,0-4,5.2-4.6,9.3C93.7,298.3,94.9,298.9,96.2,300.4 M66.4,279.3c0,0,6.8-5.7,15.4-8.8c0,0,3.9-1.4,5.2-1.7 c0,0,1-0.2,0.9-0.7c0,0-0.2-0.7-2.1-0.2c0,0-10.9,2.7-22.8,11.9c0,0-7,6-10.7,10.2c0,0-0.9,0.9-0.7,1.3c0,0,0.3,0.1,0.6-0.2 c0,0,2.2-1.5,3.7-2.3c0,0,1.2-0.5,1.6-0.7c0,0,0.9-0.4,1.6-1.4C59.2,286.8,62.8,282.3,66.4,279.3 M85.4,291.4c-4.1-2.3-3-7.1-3-7.1 c-0.2-0.5-0.6-0.9-0.6-0.9c-0.6,1.4-4.1,3.6-4.1,3.6c4.6,1.4,7.4,4.8,7.4,4.8c0.4,0.5,0.6,0.2,0.6,0.2 C85.9,291.6,85.4,291.4,85.4,291.4 M81.8,273.1c0,0,4-2.5,6-3.3c0,0,1-0.4,1-0.7c0,0-0.1-0.5-1.8,0.1c0,0-10.6,3.1-17.8,8.9 c0,0-6.3,4.8-8.3,7.5c0,0-0.5,0.7-0.6,0.8c0,0-0.5,0.6,0,0.7c0,0,0.5,0,1.1-0.4c0,0,1.9-0.8,3.3-0.7c0,0,3.3,0.2,4.9-0.9 c0,0,2.1-1.7,2.8-3.1C72.5,281.9,76.5,276.5,81.8,273.1 M94.4,308.9c-0.7-0.6-0.9,0.5-0.9,0.5l0,1.6c0.1,1.1,2.3,2.6,2.3,2.6 c0.3-0.1,1.1-1.4,1.1-1.4C96.2,310.5,94.4,308.9,94.4,308.9 M81.4,282.6c0-0.9-0.6-1.7-0.6-1.7c-2.1,3-5.5,5.1-5.5,5.1 c-0.7,0.5,0.7,0.5,0.7,0.5C78.8,286,81.4,282.6,81.4,282.6 M96.9,306.3c0,0-2.1-2.4-3.6-2.5c0,0-0.7-0.1-0.6,0.8c0,0,0,1.6,0.4,1.9 c0,0,1.5,1.7,2.5,2.1c0,0,0.4,0.3,0.7-0.2l0.6-0.9C96.9,307.5,97.3,306.7,96.9,306.3 M98.7,298.6c0,0-2.7,3.8-3.2,5.3 c0,0,1.4,1.2,2,2c0,0,2.1-2.5,1.9-6.1C99.4,299.9,99.3,297.9,98.7,298.6 M100.6,275.9c-0.2-0.1-0.5,0.2-0.5,0.2l-1,0.8 c-1.5,1.2-5.1,5.1-5.1,5.1c-3.6,4.8-3.6,9.8-3.6,9.8c0.9,0.2,3.3,2.3,3.3,2.3c0.2-1.2,1.7-2.9,1.7-2.9c0.6-0.9,2-2.9,2-2.9 c1.6-2.8,1.8-7,1.8-7c0-0.9-0.2-1.3-0.2-1.3c-0.3-0.3,0-0.8,0-0.8c0.2-0.1,0.4,0.3,0.4,0.3c0.1,0.4,0.3,0.4,0.3,0.4 c0.2,0,0.2-0.5,0.2-0.5c0.1-0.8,0.6-2.6,0.6-2.6C100.8,276.1,100.6,275.9,100.6,275.9 M109,264.4c0,0-4,0.2-4.7,0.4 c0,0-1.1,5.2-6.2,6.3c0,0-3.7,1-6.6-0.5c0,0-1.9-1.4-3.9-0.1c0,0-6.8,3.3-12.3,9.4c0,0-3.8,4.3-4.1,4.8c0,0-0.8,1.2,0.7,1.2 c0,0,2.2,0.5,4.9-2.2c0,0,3.4-3.2,4.5-5.1c0,0,0,7.6,9,8.5c0,0,1.2-4.5,5.2-8.5c0,0,3.5-3.1,5.6-4.5c0,0,4.5-3,6.2-5.8 C107.3,268.1,108.9,265.5,109,264.4 M121.7,274.8c0,0-3,0.2-5.5,1.9c0,0-4.4,2.8-5.8,6.9c0,0-1.9,4.7-1.8,8.5c0,0-0.1,4.4,0,4.6 c0,0,0,0.3,0.1,0.3c0,0,0.2,0.1,0.2-0.7c0,0,0.4-3.8,1.3-6.2c0,0,0.8-2.9,2-4.7c0,0,0.3-0.5,0.6-0.5c0,0,0.4,0.1-0.1,0.6 c0,0-1.6,2.2-2.1,5.2c0,0-0.7,3.4-0.9,5.2c0,0-0.7,4.2-1.6,6.1l-0.5,1.2c0,0-0.2,0.4,0,0.5c0,0,0.2,0.1,0.4-0.3 c0,0,1.2-2.3,1.8-4.6c0,0,0.8-2.8,1.1-3.9c0,0,0.4-1.6,0.6-2.2c0,0,0.7-2.1,1.1-2.8c0,0,0.4-0.8,0.7-0.7c0,0,0.2,0.2-0.3,0.9 c0,0-0.6,1-1.3,3.5c0,0-1.1,4.4-1.4,5.2c0,0-0.6,2-2,4.8c0,0-0.9,1.7-2,2.9c0,0,1.4-0.7,3.1-4c0,0,1.5-3.1,2-4.6c0,0,1-2.7,1.6-4.4 c0,0,1.1-3.7,1.8-4.9c0,0,2.6-5.4,6-7.8c0,0,2.6-2,4.4-1.9C125.3,278.8,125,274.5,121.7,274.8 M98.7,306.2c-0.5,1-2.2,3.3-2.2,3.3 c0.4,0.3,1.1,1.8,1.1,1.8c1.8-1.3,1.5-5,1.5-5C99,305.8,98.7,306.2,98.7,306.2 M93.8,318.3c-0.6-0.4-0.9,0.5-0.9,0.5 c-0.1,0.3,0.2,0.5,0.2,0.5l0.3,0.2c1,0.7,1.3,1.8,1.3,1.8c0,0.3,0.2,0.2,0.2,0.2c0.5-0.1,0.2-0.8,0.2-0.8 C94.9,319.6,93.8,318.3,93.8,318.3 M92.5,321.9c-0.5,0.3-0.7,1.7-0.7,1.7c-0.2,1,0.2,1.3,0.2,1.3c0.8,0,1.7-1.5,1.7-1.5 C93.7,322.8,92.5,321.9,92.5,321.9 M92.5,320.6c-0.1,0.6,0.3,0.7,0.3,0.7c0.8,0.5,1.1,1.5,1.1,1.5c0.1,0.3,0.4,0.1,0.4,0.1 c0.4-0.6-0.8-2.3-0.8-2.3C92.8,319.7,92.5,320.6,92.5,320.6 M94,316c-0.8-0.3-0.9,0.5-0.9,0.5c0,0.6,0.3,0.8,0.3,0.8 c1.2,0.9,1.8,2.2,1.8,2.2c0.3,0.7,0.6,0.5,0.6,0.5c0.3-0.1,0.1-0.9,0.1-0.9C95.4,317,94,316,94,316 M94.5,313.5c0,0-0.5-0.4-0.7,0 c0,0-0.2,0.5-0.1,1.1c0,0,0.1,0.2,0.3,0.5c0,0,1.9,1.6,2,2.7c0,0,0.1,0.6,0.3,0.6c0,0,0.4,0.1,0.4-0.8 C96.8,317.5,96.7,315.5,94.5,313.5 M98.5,311.7c0,0-1.9,1.9-2.2,2.5c0,0,0.9,1.3,1,1.8c0,0,1.5-1.5,1.6-4.1 C98.8,311.9,98.9,311.3,98.5,311.7"/>
  </g>
</svg>